<svg id="svg" version="1.1" xmlns="http://www.w3.org/2000/svg" xmlns:xlink="http://www.w3.org/1999/xlink" width="400" height="86.66666666666667" viewBox="0, 0, 400,86.66666666666667"><g id="svgg"><path id="path0" d="M88.500 0.809 L 88.500 1.617 87.054 1.719 C 85.266 1.845,85.188 1.919,85.058 3.611 L 84.954 4.954 83.611 5.058 C 81.942 5.186,81.853 5.276,81.724 6.944 L 81.621 8.287 80.277 8.391 C 78.545 8.525,78.464 8.611,78.437 10.360 L 78.417 11.750 76.889 11.750 C 75.021 11.750,75.083 11.687,75.083 13.555 L 75.083 15.083 73.555 15.083 C 71.687 15.083,71.750 15.021,71.750 16.889 L 71.750 18.417 70.222 18.417 C 68.354 18.417,68.417 18.354,68.417 20.222 L 68.417 21.750 66.889 21.750 C 65.026 21.750,65.096 21.682,65.027 23.562 L 64.970 25.097 63.943 25.036 C 63.379 25.002,62.105 25.045,61.112 25.130 C 58.794 25.330,58.616 25.475,58.527 27.240 L 58.465 28.478 57.357 28.391 C 56.748 28.343,55.438 28.375,54.445 28.461 C 52.136 28.663,51.978 28.793,51.825 30.621 L 51.717 31.917 51.692 30.298 C 51.661 28.320,51.593 28.256,49.640 28.369 L 48.333 28.445 48.333 26.895 C 48.333 24.995,48.255 24.923,46.307 25.036 L 45.000 25.112 45.000 23.562 C 45.000 21.662,44.922 21.590,42.974 21.703 L 41.667 21.778 41.667 20.228 C 41.667 18.328,41.588 18.256,39.640 18.369 L 38.333 18.445 38.333 16.895 C 38.333 14.998,38.253 14.923,36.322 15.035 L 35.030 15.110 34.973 13.568 C 34.904 11.692,34.972 11.763,33.169 11.692 L 31.699 11.635 31.641 10.164 C 31.571 8.367,31.633 8.429,29.836 8.359 L 28.366 8.301 28.308 6.909 C 28.228 4.998,28.387 5.078,24.763 5.111 L 21.714 5.139 21.610 3.785 C 21.445 1.652,21.692 1.750,16.504 1.750 C 11.493 1.750,11.830 1.623,11.709 3.561 L 11.621 4.986 10.882 5.097 C 10.475 5.158,9.192 5.159,8.030 5.100 C 3.016 4.844,2.001 5.189,1.844 7.202 L 1.750 8.417 0.875 8.467 L 0.000 8.517 0.000 31.750 L 0.000 54.983 0.958 55.044 L 1.917 55.104 0.958 55.135 L 0.000 55.167 0.000 68.417 L 0.000 81.667 0.817 81.667 L 1.634 81.667 1.692 83.153 C 1.763 84.969,1.697 84.904,3.514 84.975 L 5.000 85.033 5.000 85.850 L 5.000 86.667 16.667 86.667 L 28.333 86.667 28.333 85.851 L 28.333 85.035 29.662 84.975 C 31.614 84.886,31.572 84.964,31.635 81.344 L 31.687 78.366 33.163 78.308 C 33.975 78.276,34.702 78.188,34.778 78.111 C 34.854 78.035,34.954 74.285,35.000 69.778 C 35.046 65.271,35.123 62.127,35.172 62.793 C 35.292 64.426,35.561 64.695,37.202 64.822 L 38.417 64.917 38.511 66.132 C 38.638 67.767,38.899 68.028,40.535 68.156 L 41.750 68.250 41.844 69.465 C 41.972 71.101,42.233 71.362,43.868 71.489 L 45.083 71.583 45.178 72.798 C 45.328 74.729,45.851 74.958,50.185 74.990 L 51.620 75.000 51.709 76.433 C 51.834 78.437,50.627 78.244,63.326 78.295 C 76.267 78.347,75.000 78.553,75.000 76.405 L 75.000 75.000 76.542 74.991 C 80.737 74.967,81.356 74.707,81.469 72.925 C 81.552 71.629,81.622 71.560,82.965 71.467 C 84.391 71.368,84.710 71.043,84.803 69.591 C 84.885 68.295,84.956 68.226,86.298 68.134 C 87.725 68.035,88.044 67.709,88.136 66.258 C 88.219 64.962,88.289 64.893,89.631 64.800 C 91.050 64.702,91.353 64.391,91.497 62.884 C 91.557 62.261,91.639 65.292,91.678 69.621 C 91.763 78.870,91.579 78.106,93.757 78.274 L 95.083 78.377 95.109 80.923 C 95.147 84.767,95.151 84.771,99.057 84.939 L 101.667 85.052 101.667 85.859 L 101.667 86.667 111.667 86.667 L 121.667 86.667 121.667 85.839 L 121.667 85.012 123.292 84.964 L 124.917 84.917 124.964 83.298 L 125.012 81.679 126.631 81.631 L 128.250 81.583 128.295 78.315 L 128.340 75.048 129.613 74.951 C 130.598 74.877,130.965 74.776,131.234 74.506 L 131.583 74.157 131.583 50.013 C 131.583 22.575,131.730 25.187,130.183 25.147 L 129.417 25.127 130.203 24.939 C 131.541 24.618,131.583 24.517,131.583 21.678 C 131.583 18.604,131.577 18.593,129.660 18.426 L 128.333 18.310 128.323 15.197 C 128.302 9.051,128.171 8.642,126.191 8.530 L 125.047 8.465 124.943 7.115 C 124.785 5.067,124.829 5.092,121.206 5.069 L 118.250 5.051 118.156 3.852 C 118.028 2.230,117.749 1.951,116.168 1.862 L 115.000 1.796 115.000 0.898 L 115.000 0.000 101.750 0.000 L 88.500 0.000 88.500 0.809 M166.477 18.449 C 165.381 18.545,165.187 18.830,165.131 20.424 L 165.083 21.750 162.476 21.774 C 158.519 21.811,158.477 21.852,158.440 25.754 L 158.417 28.304 156.889 28.360 C 156.048 28.391,155.307 28.471,155.241 28.537 C 155.175 28.603,155.127 37.408,155.133 48.104 L 155.145 67.552 155.494 67.901 C 155.834 68.242,155.978 68.250,161.667 68.250 L 167.491 68.250 167.870 67.870 L 168.250 67.491 168.296 52.912 L 168.342 38.333 169.742 38.333 C 171.582 38.333,171.667 38.248,171.667 36.405 L 171.667 35.000 174.983 35.000 L 178.300 35.000 178.358 36.486 C 178.430 38.303,178.364 38.237,180.180 38.308 L 181.667 38.366 181.697 49.475 C 181.714 55.585,181.733 62.137,181.739 64.037 C 181.750 67.401,181.760 67.500,182.130 67.870 L 182.509 68.250 188.333 68.250 L 194.157 68.250 194.537 67.870 L 194.917 67.491 194.963 52.912 L 195.009 38.333 196.499 38.333 C 198.297 38.333,198.333 38.294,198.333 36.344 L 198.333 35.000 201.650 35.000 L 204.967 35.000 205.025 36.486 C 205.096 38.303,205.031 38.237,206.847 38.308 L 208.333 38.366 208.354 50.100 C 208.387 68.812,208.353 67.427,208.796 67.870 L 209.176 68.250 215.000 68.250 L 220.824 68.250 221.204 67.871 L 221.583 67.491 221.667 59.454 C 221.713 55.033,221.789 51.997,221.836 52.707 C 221.952 54.435,222.217 54.714,223.832 54.805 L 225.000 54.871 225.000 56.280 C 225.000 58.310,225.021 58.333,226.895 58.333 L 228.445 58.333 228.369 59.640 C 228.257 61.575,228.338 61.667,230.155 61.667 L 231.632 61.667 231.691 63.075 C 231.771 64.994,231.605 64.907,235.323 64.968 L 238.464 65.020 238.529 66.177 C 238.641 68.169,239.078 68.311,245.083 68.314 C 250.863 68.317,251.318 68.168,251.486 66.218 L 251.583 65.083 259.917 65.000 L 268.250 64.917 268.250 42.046 L 268.250 19.176 267.870 18.796 C 267.495 18.421,267.444 18.417,263.171 18.417 C 258.099 18.417,258.436 18.283,258.425 20.292 L 258.417 21.750 255.083 21.750 L 251.750 21.750 251.650 20.283 C 251.511 18.253,252.094 18.417,245.000 18.417 C 237.926 18.417,238.516 18.252,238.363 20.271 L 238.250 21.750 235.236 21.693 C 231.538 21.622,231.667 21.552,231.667 23.637 L 231.667 25.083 229.102 25.107 C 225.189 25.144,225.162 25.170,225.115 29.127 L 225.083 31.750 223.757 31.797 C 222.140 31.855,221.847 32.058,221.802 33.151 C 221.784 33.572,221.728 32.741,221.677 31.305 C 221.567 28.236,221.689 28.432,219.845 28.359 L 218.384 28.302 218.272 25.709 C 218.104 21.821,218.102 21.819,214.261 21.777 L 211.710 21.750 211.608 20.424 C 211.437 18.222,212.400 18.417,201.667 18.417 C 190.919 18.417,191.875 18.223,191.797 20.417 L 191.750 21.750 188.397 21.750 L 185.043 21.750 184.941 20.424 C 184.772 18.232,185.627 18.420,175.704 18.399 C 171.054 18.389,166.902 18.412,166.477 18.449 M272.423 18.473 C 271.724 18.631,271.722 18.655,271.737 26.876 C 271.752 35.456,271.581 34.773,273.765 34.941 L 275.099 35.044 275.091 38.096 C 275.082 41.742,274.984 41.563,277.028 41.642 L 278.539 41.701 278.430 44.559 C 278.206 50.454,278.470 51.327,280.519 51.489 L 281.718 51.583 281.734 54.700 C 281.753 58.411,281.656 58.229,283.668 58.308 L 285.153 58.366 285.118 61.500 C 285.078 65.147,284.957 64.901,286.825 64.974 L 288.288 65.031 288.377 66.448 C 288.497 68.376,288.161 68.250,293.171 68.250 C 298.345 68.250,298.106 68.344,298.297 66.240 L 298.417 64.917 299.551 64.819 C 301.510 64.651,301.641 64.241,301.658 58.225 L 301.667 55.033 303.153 54.975 C 305.042 54.901,304.903 55.167,305.000 51.445 L 305.083 48.250 306.218 48.153 C 308.177 47.984,308.307 47.576,308.324 41.542 L 308.333 38.333 309.542 38.331 C 311.009 38.328,311.490 38.213,311.532 37.856 C 311.550 37.706,311.607 40.563,311.657 44.204 C 311.767 52.016,311.604 51.441,313.757 51.607 L 315.083 51.710 315.083 54.682 C 315.083 58.278,315.035 58.185,316.976 58.298 L 318.302 58.374 318.359 59.840 C 318.429 61.633,318.367 61.571,320.170 61.641 L 321.647 61.699 321.761 63.009 C 321.935 65.008,321.657 64.906,327.090 64.972 L 331.646 65.028 331.761 66.340 C 331.935 68.337,331.710 68.250,336.679 68.250 C 341.653 68.250,341.463 68.326,341.618 66.276 L 341.715 65.000 344.899 64.991 C 350.907 64.974,351.318 64.843,351.486 62.884 L 351.583 61.750 352.907 61.630 C 354.865 61.453,354.898 61.402,354.971 58.456 C 355.107 52.916,354.805 51.973,352.854 51.863 L 351.707 51.798 351.634 50.411 C 351.552 48.859,351.372 48.518,350.605 48.463 C 350.318 48.442,351.921 48.386,354.167 48.338 L 358.250 48.250 358.333 56.286 C 358.430 65.642,358.250 64.845,360.302 64.964 L 361.620 65.040 361.724 66.386 C 361.792 67.267,361.918 67.822,362.087 67.991 C 362.467 68.371,373.158 68.376,373.915 67.997 C 374.954 67.476,374.909 68.126,375.000 52.500 L 375.083 38.250 376.218 38.153 C 377.736 38.022,378.022 37.736,378.153 36.218 L 378.250 35.083 381.667 35.038 L 385.083 34.993 385.083 49.738 C 385.083 66.586,384.881 64.890,386.902 64.975 L 388.288 65.032 388.377 66.449 C 388.498 68.393,388.008 68.243,394.425 68.298 L 400.000 68.346 400.000 48.423 L 400.000 28.500 399.167 28.500 L 398.333 28.500 398.333 26.923 C 398.333 25.025,398.308 25.000,396.344 25.000 L 395.000 25.000 395.000 23.595 C 395.000 21.740,394.924 21.667,393.007 21.667 L 391.538 21.667 391.472 20.499 C 391.349 18.327,391.144 18.290,379.631 18.368 C 371.140 18.425,371.871 18.241,371.721 20.357 L 371.621 21.774 368.650 21.762 C 365.090 21.748,365.206 21.688,365.058 23.611 L 364.954 24.954 363.611 25.058 C 361.685 25.206,361.750 25.078,361.751 28.740 L 361.752 31.801 360.544 31.862 C 358.858 31.947,358.613 32.210,358.505 34.045 L 358.425 35.417 358.337 33.722 C 358.232 31.673,358.314 31.763,356.500 31.692 L 355.027 31.634 354.972 28.656 C 354.905 25.064,354.979 25.196,352.946 25.053 L 351.500 24.950 351.498 24.017 C 351.492 22.068,351.095 21.840,347.543 21.750 L 344.917 21.684 344.822 20.502 C 344.651 18.365,344.248 18.281,334.631 18.366 C 328.033 18.425,328.536 18.263,328.386 20.380 L 328.285 21.819 325.158 21.785 C 321.510 21.744,321.765 21.613,321.693 23.566 L 321.637 25.105 320.266 25.033 C 318.398 24.935,318.269 25.066,318.368 26.948 L 318.440 28.333 317.178 28.336 C 315.658 28.338,315.177 28.450,315.134 28.811 C 315.116 28.961,315.060 26.854,315.009 24.129 C 314.918 19.255,314.911 19.169,314.537 18.796 L 314.157 18.417 307.037 18.417 C 297.578 18.417,298.415 17.863,298.451 24.101 L 298.475 28.286 297.041 28.387 C 294.947 28.535,295.083 28.171,295.083 33.632 L 295.083 38.250 293.667 38.337 C 292.143 38.431,291.850 38.530,291.804 38.968 C 291.787 39.123,291.731 37.739,291.678 35.892 C 291.561 31.821,291.615 31.930,289.660 31.759 L 288.333 31.644 288.323 28.530 C 288.302 22.382,288.172 21.975,286.188 21.863 L 285.040 21.798 284.966 20.393 C 284.855 18.265,285.351 18.422,278.619 18.389 C 275.483 18.374,272.695 18.411,272.423 18.473 M315.149 34.042 L 315.167 35.000 314.042 35.020 C 312.298 35.050,311.937 35.169,311.813 35.751 C 311.754 36.026,311.697 35.230,311.686 33.982 L 311.667 31.715 312.932 31.619 C 314.332 31.513,314.816 31.237,314.860 30.516 C 314.894 29.958,315.126 32.787,315.149 34.042 M335.446 34.532 C 335.586 34.688,335.937 34.844,336.226 34.881 C 336.514 34.917,336.188 34.950,335.500 34.954 C 334.813 34.958,334.374 34.929,334.525 34.888 C 334.837 34.806,334.981 34.381,335.027 33.417 L 335.058 32.750 335.124 33.500 C 335.160 33.912,335.305 34.377,335.446 34.532 M251.717 36.042 C 251.674 36.615,251.709 37.895,251.795 38.888 C 251.994 41.178,252.134 41.354,253.868 41.489 L 255.083 41.583 255.129 43.333 L 255.174 45.083 253.802 45.131 C 252.011 45.192,251.904 45.294,251.756 47.074 L 251.640 48.464 250.486 48.529 C 248.913 48.618,248.632 48.903,248.509 50.538 L 248.417 51.750 245.060 51.750 L 241.704 51.750 241.631 50.369 C 241.540 48.618,241.448 48.524,239.697 48.389 L 238.329 48.284 238.373 43.267 L 238.417 38.250 239.551 38.153 C 241.031 38.025,241.362 37.718,241.456 36.385 C 241.493 35.852,241.554 35.323,241.590 35.208 C 241.641 35.048,242.816 35.000,246.726 35.000 L 251.795 35.000 251.717 36.042 M342.721 48.453 C 341.932 48.552,341.793 48.840,341.770 50.425 C 341.751 51.761,341.730 51.842,341.417 51.759 C 341.233 51.711,338.974 51.670,336.396 51.669 L 331.709 51.667 331.633 50.343 C 331.547 48.860,331.379 48.549,330.613 48.453 C 330.321 48.417,333.046 48.387,336.667 48.387 C 340.287 48.387,343.012 48.417,342.721 48.453 M10.797 51.789 C 10.365 51.823,9.615 51.824,9.131 51.790 C 8.646 51.756,9.000 51.728,9.917 51.728 C 10.833 51.727,11.230 51.755,10.797 51.789 M21.288 51.788 C 20.942 51.824,20.417 51.824,20.121 51.787 C 19.825 51.750,20.108 51.721,20.750 51.721 C 21.392 51.722,21.634 51.752,21.288 51.788 " stroke="none" fill="#2c2ca4" fill-rule="evenodd"></path><path id="path1" d="M8.631 5.123 C 9.115 5.157,9.865 5.156,10.297 5.122 C 10.730 5.088,10.333 5.060,9.417 5.061 C 8.500 5.061,8.146 5.089,8.631 5.123 M22.125 5.121 C 22.423 5.158,22.910 5.158,23.208 5.121 C 23.506 5.084,23.262 5.053,22.667 5.053 C 22.071 5.053,21.827 5.084,22.125 5.121 M118.542 5.115 C 118.702 5.157,118.965 5.157,119.125 5.115 C 119.285 5.073,119.154 5.039,118.833 5.039 C 118.513 5.039,118.381 5.073,118.542 5.115 M164.375 21.782 C 164.535 21.823,164.798 21.823,164.958 21.782 C 165.119 21.740,164.987 21.705,164.667 21.705 C 164.346 21.705,164.215 21.740,164.375 21.782 M185.294 21.785 C 185.501 21.824,185.801 21.823,185.960 21.781 C 186.120 21.739,185.950 21.707,185.583 21.709 C 185.217 21.711,185.086 21.745,185.294 21.785 M190.792 21.784 C 190.998 21.824,191.335 21.824,191.542 21.784 C 191.748 21.745,191.579 21.712,191.167 21.712 C 190.754 21.712,190.585 21.745,190.792 21.784 M236.047 21.789 C 236.485 21.824,237.160 21.823,237.547 21.788 C 237.934 21.754,237.575 21.725,236.750 21.726 C 235.925 21.726,235.609 21.755,236.047 21.789 M252.463 21.789 C 252.855 21.824,253.455 21.824,253.796 21.788 C 254.137 21.752,253.817 21.723,253.083 21.724 C 252.350 21.724,252.071 21.754,252.463 21.789 M326.542 21.788 C 326.885 21.824,327.448 21.824,327.792 21.788 C 328.135 21.752,327.854 21.723,327.167 21.723 C 326.479 21.723,326.198 21.752,326.542 21.788 M370.375 21.786 C 370.627 21.824,371.040 21.824,371.292 21.786 C 371.544 21.748,371.337 21.717,370.833 21.717 C 370.329 21.717,370.123 21.748,370.375 21.786 M271.718 23.917 C 271.719 24.467,271.750 24.672,271.787 24.372 C 271.825 24.072,271.824 23.622,271.786 23.372 C 271.748 23.122,271.717 23.367,271.718 23.917 M298.396 26.500 C 298.396 27.554,298.423 27.985,298.456 27.458 C 298.490 26.931,298.490 26.069,298.456 25.542 C 298.423 25.015,298.396 25.446,298.396 26.500 M230.794 25.118 C 231.001 25.158,231.301 25.156,231.460 25.115 C 231.620 25.073,231.450 25.040,231.083 25.042 C 230.717 25.044,230.586 25.078,230.794 25.118 M271.726 26.583 C 271.725 27.408,271.754 27.767,271.788 27.380 C 271.823 26.993,271.824 26.318,271.789 25.880 C 271.755 25.442,271.726 25.758,271.726 26.583 M158.375 27.750 C 158.377 28.117,158.411 28.247,158.451 28.040 C 158.491 27.832,158.490 27.532,158.448 27.373 C 158.406 27.214,158.374 27.383,158.375 27.750 M361.712 31.167 C 361.712 31.579,361.745 31.748,361.784 31.542 C 361.824 31.335,361.824 30.998,361.784 30.792 C 361.745 30.585,361.712 30.754,361.712 31.167 M315.056 33.833 C 315.056 34.521,315.085 34.802,315.121 34.458 C 315.157 34.115,315.157 33.552,315.121 33.208 C 315.085 32.865,315.056 33.146,315.056 33.833 M155.080 48.083 C 155.080 56.242,155.100 59.555,155.125 55.446 C 155.150 51.337,155.150 44.662,155.125 40.612 C 155.100 36.563,155.080 39.925,155.080 48.083 M295.064 36.250 C 295.064 37.350,295.091 37.778,295.124 37.202 C 295.156 36.625,295.156 35.725,295.123 35.202 C 295.090 34.678,295.063 35.150,295.064 36.250 M275.045 35.667 C 275.045 36.079,275.078 36.248,275.118 36.042 C 275.157 35.835,275.157 35.498,275.118 35.292 C 275.078 35.085,275.045 35.254,275.045 35.667 M385.045 35.667 C 385.045 36.079,385.078 36.248,385.118 36.042 C 385.157 35.835,385.157 35.498,385.118 35.292 C 385.078 35.085,385.045 35.254,385.045 35.667 M255.062 43.417 C 255.063 44.425,255.090 44.816,255.123 44.286 C 255.157 43.755,255.156 42.930,255.123 42.452 C 255.089 41.974,255.062 42.408,255.062 43.417 M278.393 43.167 C 278.393 44.038,278.422 44.394,278.456 43.958 C 278.490 43.523,278.490 42.810,278.456 42.375 C 278.422 41.940,278.393 42.296,278.393 43.167 M9.131 51.790 C 9.615 51.824,10.365 51.823,10.797 51.789 C 11.230 51.755,10.833 51.727,9.917 51.728 C 9.000 51.728,8.646 51.756,9.131 51.790 M20.121 51.787 C 20.417 51.824,20.942 51.824,21.288 51.788 C 21.634 51.752,21.392 51.722,20.750 51.721 C 20.108 51.721,19.825 51.750,20.121 51.787 M315.042 52.250 C 315.044 52.617,315.078 52.747,315.118 52.540 C 315.158 52.332,315.156 52.032,315.115 51.873 C 315.073 51.714,315.040 51.883,315.042 52.250 M0.461 55.121 C 0.761 55.158,1.211 55.157,1.461 55.119 C 1.712 55.081,1.467 55.051,0.917 55.052 C 0.367 55.053,0.162 55.084,0.461 55.121 M285.056 59.500 C 285.056 60.188,285.085 60.469,285.121 60.125 C 285.157 59.781,285.157 59.219,285.121 58.875 C 285.085 58.531,285.056 58.813,285.056 59.500 M181.725 61.833 C 181.725 62.612,181.754 62.931,181.789 62.542 C 181.824 62.152,181.824 61.515,181.789 61.125 C 181.754 60.735,181.725 61.054,181.725 61.833 M208.381 62.583 C 208.382 63.042,208.415 63.209,208.453 62.956 C 208.491 62.703,208.490 62.328,208.451 62.123 C 208.411 61.918,208.380 62.125,208.381 62.583 M95.039 78.833 C 95.039 79.154,95.073 79.285,95.115 79.125 C 95.157 78.965,95.157 78.702,95.115 78.542 C 95.073 78.381,95.039 78.512,95.039 78.833 " stroke="none" fill="#302ca4" fill-rule="evenodd"></path><path id="path2" d="M8.631 5.123 C 9.115 5.157,9.865 5.156,10.297 5.122 C 10.730 5.088,10.333 5.060,9.417 5.061 C 8.500 5.061,8.146 5.089,8.631 5.123 M22.125 5.121 C 22.423 5.158,22.910 5.158,23.208 5.121 C 23.506 5.084,23.262 5.053,22.667 5.053 C 22.071 5.053,21.827 5.084,22.125 5.121 M118.542 5.115 C 118.702 5.157,118.965 5.157,119.125 5.115 C 119.285 5.073,119.154 5.039,118.833 5.039 C 118.513 5.039,118.381 5.073,118.542 5.115 M164.375 21.782 C 164.535 21.823,164.798 21.823,164.958 21.782 C 165.119 21.740,164.987 21.705,164.667 21.705 C 164.346 21.705,164.215 21.740,164.375 21.782 M185.294 21.785 C 185.501 21.824,185.801 21.823,185.960 21.781 C 186.120 21.739,185.950 21.707,185.583 21.709 C 185.217 21.711,185.086 21.745,185.294 21.785 M190.792 21.784 C 190.998 21.824,191.335 21.824,191.542 21.784 C 191.748 21.745,191.579 21.712,191.167 21.712 C 190.754 21.712,190.585 21.745,190.792 21.784 M236.047 21.789 C 236.485 21.824,237.160 21.823,237.547 21.788 C 237.934 21.754,237.575 21.725,236.750 21.726 C 235.925 21.726,235.609 21.755,236.047 21.789 M252.463 21.789 C 252.855 21.824,253.455 21.824,253.796 21.788 C 254.137 21.752,253.817 21.723,253.083 21.724 C 252.350 21.724,252.071 21.754,252.463 21.789 M326.542 21.788 C 326.885 21.824,327.448 21.824,327.792 21.788 C 328.135 21.752,327.854 21.723,327.167 21.723 C 326.479 21.723,326.198 21.752,326.542 21.788 M370.375 21.786 C 370.627 21.824,371.040 21.824,371.292 21.786 C 371.544 21.748,371.337 21.717,370.833 21.717 C 370.329 21.717,370.123 21.748,370.375 21.786 M271.718 23.917 C 271.719 24.467,271.750 24.672,271.787 24.372 C 271.825 24.072,271.824 23.622,271.786 23.372 C 271.748 23.122,271.717 23.367,271.718 23.917 M298.396 26.500 C 298.396 27.554,298.423 27.985,298.456 27.458 C 298.490 26.931,298.490 26.069,298.456 25.542 C 298.423 25.015,298.396 25.446,298.396 26.500 M230.794 25.118 C 231.001 25.158,231.301 25.156,231.460 25.115 C 231.620 25.073,231.450 25.040,231.083 25.042 C 230.717 25.044,230.586 25.078,230.794 25.118 M271.726 26.583 C 271.725 27.408,271.754 27.767,271.788 27.380 C 271.823 26.993,271.824 26.318,271.789 25.880 C 271.755 25.442,271.726 25.758,271.726 26.583 M158.375 27.750 C 158.377 28.117,158.411 28.247,158.451 28.040 C 158.491 27.832,158.490 27.532,158.448 27.373 C 158.406 27.214,158.374 27.383,158.375 27.750 M361.712 31.167 C 361.712 31.579,361.745 31.748,361.784 31.542 C 361.824 31.335,361.824 30.998,361.784 30.792 C 361.745 30.585,361.712 30.754,361.712 31.167 M315.056 33.833 C 315.056 34.521,315.085 34.802,315.121 34.458 C 315.157 34.115,315.157 33.552,315.121 33.208 C 315.085 32.865,315.056 33.146,315.056 33.833 M155.080 48.083 C 155.080 56.242,155.100 59.555,155.125 55.446 C 155.150 51.337,155.150 44.662,155.125 40.612 C 155.100 36.563,155.080 39.925,155.080 48.083 M295.064 36.250 C 295.064 37.350,295.091 37.778,295.124 37.202 C 295.156 36.625,295.156 35.725,295.123 35.202 C 295.090 34.678,295.063 35.150,295.064 36.250 M275.045 35.667 C 275.045 36.079,275.078 36.248,275.118 36.042 C 275.157 35.835,275.157 35.498,275.118 35.292 C 275.078 35.085,275.045 35.254,275.045 35.667 M385.045 35.667 C 385.045 36.079,385.078 36.248,385.118 36.042 C 385.157 35.835,385.157 35.498,385.118 35.292 C 385.078 35.085,385.045 35.254,385.045 35.667 M255.062 43.417 C 255.063 44.425,255.090 44.816,255.123 44.286 C 255.157 43.755,255.156 42.930,255.123 42.452 C 255.089 41.974,255.062 42.408,255.062 43.417 M278.393 43.167 C 278.393 44.038,278.422 44.394,278.456 43.958 C 278.490 43.523,278.490 42.810,278.456 42.375 C 278.422 41.940,278.393 42.296,278.393 43.167 M9.131 51.790 C 9.615 51.824,10.365 51.823,10.797 51.789 C 11.230 51.755,10.833 51.727,9.917 51.728 C 9.000 51.728,8.646 51.756,9.131 51.790 M20.121 51.787 C 20.417 51.824,20.942 51.824,21.288 51.788 C 21.634 51.752,21.392 51.722,20.750 51.721 C 20.108 51.721,19.825 51.750,20.121 51.787 M315.042 52.250 C 315.044 52.617,315.078 52.747,315.118 52.540 C 315.158 52.332,315.156 52.032,315.115 51.873 C 315.073 51.714,315.040 51.883,315.042 52.250 M0.461 55.121 C 0.761 55.158,1.211 55.157,1.461 55.119 C 1.712 55.081,1.467 55.051,0.917 55.052 C 0.367 55.053,0.162 55.084,0.461 55.121 M285.056 59.500 C 285.056 60.188,285.085 60.469,285.121 60.125 C 285.157 59.781,285.157 59.219,285.121 58.875 C 285.085 58.531,285.056 58.813,285.056 59.500 M181.725 61.833 C 181.725 62.612,181.754 62.931,181.789 62.542 C 181.824 62.152,181.824 61.515,181.789 61.125 C 181.754 60.735,181.725 61.054,181.725 61.833 M208.381 62.583 C 208.382 63.042,208.415 63.209,208.453 62.956 C 208.491 62.703,208.490 62.328,208.451 62.123 C 208.411 61.918,208.380 62.125,208.381 62.583 M95.039 78.833 C 95.039 79.154,95.073 79.285,95.115 79.125 C 95.157 78.965,95.157 78.702,95.115 78.542 C 95.073 78.381,95.039 78.512,95.039 78.833 " stroke="none" fill="#302ca4" fill-rule="evenodd"></path><path id="path3" d="M8.631 5.123 C 9.115 5.157,9.865 5.156,10.297 5.122 C 10.730 5.088,10.333 5.060,9.417 5.061 C 8.500 5.061,8.146 5.089,8.631 5.123 M22.125 5.121 C 22.423 5.158,22.910 5.158,23.208 5.121 C 23.506 5.084,23.262 5.053,22.667 5.053 C 22.071 5.053,21.827 5.084,22.125 5.121 M118.542 5.115 C 118.702 5.157,118.965 5.157,119.125 5.115 C 119.285 5.073,119.154 5.039,118.833 5.039 C 118.513 5.039,118.381 5.073,118.542 5.115 M164.375 21.782 C 164.535 21.823,164.798 21.823,164.958 21.782 C 165.119 21.740,164.987 21.705,164.667 21.705 C 164.346 21.705,164.215 21.740,164.375 21.782 M185.294 21.785 C 185.501 21.824,185.801 21.823,185.960 21.781 C 186.120 21.739,185.950 21.707,185.583 21.709 C 185.217 21.711,185.086 21.745,185.294 21.785 M190.792 21.784 C 190.998 21.824,191.335 21.824,191.542 21.784 C 191.748 21.745,191.579 21.712,191.167 21.712 C 190.754 21.712,190.585 21.745,190.792 21.784 M236.047 21.789 C 236.485 21.824,237.160 21.823,237.547 21.788 C 237.934 21.754,237.575 21.725,236.750 21.726 C 235.925 21.726,235.609 21.755,236.047 21.789 M252.463 21.789 C 252.855 21.824,253.455 21.824,253.796 21.788 C 254.137 21.752,253.817 21.723,253.083 21.724 C 252.350 21.724,252.071 21.754,252.463 21.789 M326.542 21.788 C 326.885 21.824,327.448 21.824,327.792 21.788 C 328.135 21.752,327.854 21.723,327.167 21.723 C 326.479 21.723,326.198 21.752,326.542 21.788 M370.375 21.786 C 370.627 21.824,371.040 21.824,371.292 21.786 C 371.544 21.748,371.337 21.717,370.833 21.717 C 370.329 21.717,370.123 21.748,370.375 21.786 M271.718 23.917 C 271.719 24.467,271.750 24.672,271.787 24.372 C 271.825 24.072,271.824 23.622,271.786 23.372 C 271.748 23.122,271.717 23.367,271.718 23.917 M298.396 26.500 C 298.396 27.554,298.423 27.985,298.456 27.458 C 298.490 26.931,298.490 26.069,298.456 25.542 C 298.423 25.015,298.396 25.446,298.396 26.500 M230.794 25.118 C 231.001 25.158,231.301 25.156,231.460 25.115 C 231.620 25.073,231.450 25.040,231.083 25.042 C 230.717 25.044,230.586 25.078,230.794 25.118 M271.726 26.583 C 271.725 27.408,271.754 27.767,271.788 27.380 C 271.823 26.993,271.824 26.318,271.789 25.880 C 271.755 25.442,271.726 25.758,271.726 26.583 M158.375 27.750 C 158.377 28.117,158.411 28.247,158.451 28.040 C 158.491 27.832,158.490 27.532,158.448 27.373 C 158.406 27.214,158.374 27.383,158.375 27.750 M361.712 31.167 C 361.712 31.579,361.745 31.748,361.784 31.542 C 361.824 31.335,361.824 30.998,361.784 30.792 C 361.745 30.585,361.712 30.754,361.712 31.167 M315.056 33.833 C 315.056 34.521,315.085 34.802,315.121 34.458 C 315.157 34.115,315.157 33.552,315.121 33.208 C 315.085 32.865,315.056 33.146,315.056 33.833 M155.080 48.083 C 155.080 56.242,155.100 59.555,155.125 55.446 C 155.150 51.337,155.150 44.662,155.125 40.612 C 155.100 36.563,155.080 39.925,155.080 48.083 M295.064 36.250 C 295.064 37.350,295.091 37.778,295.124 37.202 C 295.156 36.625,295.156 35.725,295.123 35.202 C 295.090 34.678,295.063 35.150,295.064 36.250 M275.045 35.667 C 275.045 36.079,275.078 36.248,275.118 36.042 C 275.157 35.835,275.157 35.498,275.118 35.292 C 275.078 35.085,275.045 35.254,275.045 35.667 M385.045 35.667 C 385.045 36.079,385.078 36.248,385.118 36.042 C 385.157 35.835,385.157 35.498,385.118 35.292 C 385.078 35.085,385.045 35.254,385.045 35.667 M255.062 43.417 C 255.063 44.425,255.090 44.816,255.123 44.286 C 255.157 43.755,255.156 42.930,255.123 42.452 C 255.089 41.974,255.062 42.408,255.062 43.417 M278.393 43.167 C 278.393 44.038,278.422 44.394,278.456 43.958 C 278.490 43.523,278.490 42.810,278.456 42.375 C 278.422 41.940,278.393 42.296,278.393 43.167 M9.131 51.790 C 9.615 51.824,10.365 51.823,10.797 51.789 C 11.230 51.755,10.833 51.727,9.917 51.728 C 9.000 51.728,8.646 51.756,9.131 51.790 M20.121 51.787 C 20.417 51.824,20.942 51.824,21.288 51.788 C 21.634 51.752,21.392 51.722,20.750 51.721 C 20.108 51.721,19.825 51.750,20.121 51.787 M315.042 52.250 C 315.044 52.617,315.078 52.747,315.118 52.540 C 315.158 52.332,315.156 52.032,315.115 51.873 C 315.073 51.714,315.040 51.883,315.042 52.250 M0.461 55.121 C 0.761 55.158,1.211 55.157,1.461 55.119 C 1.712 55.081,1.467 55.051,0.917 55.052 C 0.367 55.053,0.162 55.084,0.461 55.121 M285.056 59.500 C 285.056 60.188,285.085 60.469,285.121 60.125 C 285.157 59.781,285.157 59.219,285.121 58.875 C 285.085 58.531,285.056 58.813,285.056 59.500 M181.725 61.833 C 181.725 62.612,181.754 62.931,181.789 62.542 C 181.824 62.152,181.824 61.515,181.789 61.125 C 181.754 60.735,181.725 61.054,181.725 61.833 M208.381 62.583 C 208.382 63.042,208.415 63.209,208.453 62.956 C 208.491 62.703,208.490 62.328,208.451 62.123 C 208.411 61.918,208.380 62.125,208.381 62.583 M95.039 78.833 C 95.039 79.154,95.073 79.285,95.115 79.125 C 95.157 78.965,95.157 78.702,95.115 78.542 C 95.073 78.381,95.039 78.512,95.039 78.833 " stroke="none" fill="#302ca4" fill-rule="evenodd"></path><path id="path4" d="M8.631 5.123 C 9.115 5.157,9.865 5.156,10.297 5.122 C 10.730 5.088,10.333 5.060,9.417 5.061 C 8.500 5.061,8.146 5.089,8.631 5.123 M22.125 5.121 C 22.423 5.158,22.910 5.158,23.208 5.121 C 23.506 5.084,23.262 5.053,22.667 5.053 C 22.071 5.053,21.827 5.084,22.125 5.121 M118.542 5.115 C 118.702 5.157,118.965 5.157,119.125 5.115 C 119.285 5.073,119.154 5.039,118.833 5.039 C 118.513 5.039,118.381 5.073,118.542 5.115 M164.375 21.782 C 164.535 21.823,164.798 21.823,164.958 21.782 C 165.119 21.740,164.987 21.705,164.667 21.705 C 164.346 21.705,164.215 21.740,164.375 21.782 M185.294 21.785 C 185.501 21.824,185.801 21.823,185.960 21.781 C 186.120 21.739,185.950 21.707,185.583 21.709 C 185.217 21.711,185.086 21.745,185.294 21.785 M190.792 21.784 C 190.998 21.824,191.335 21.824,191.542 21.784 C 191.748 21.745,191.579 21.712,191.167 21.712 C 190.754 21.712,190.585 21.745,190.792 21.784 M236.047 21.789 C 236.485 21.824,237.160 21.823,237.547 21.788 C 237.934 21.754,237.575 21.725,236.750 21.726 C 235.925 21.726,235.609 21.755,236.047 21.789 M252.463 21.789 C 252.855 21.824,253.455 21.824,253.796 21.788 C 254.137 21.752,253.817 21.723,253.083 21.724 C 252.350 21.724,252.071 21.754,252.463 21.789 M326.542 21.788 C 326.885 21.824,327.448 21.824,327.792 21.788 C 328.135 21.752,327.854 21.723,327.167 21.723 C 326.479 21.723,326.198 21.752,326.542 21.788 M370.375 21.786 C 370.627 21.824,371.040 21.824,371.292 21.786 C 371.544 21.748,371.337 21.717,370.833 21.717 C 370.329 21.717,370.123 21.748,370.375 21.786 M271.718 23.917 C 271.719 24.467,271.750 24.672,271.787 24.372 C 271.825 24.072,271.824 23.622,271.786 23.372 C 271.748 23.122,271.717 23.367,271.718 23.917 M298.396 26.500 C 298.396 27.554,298.423 27.985,298.456 27.458 C 298.490 26.931,298.490 26.069,298.456 25.542 C 298.423 25.015,298.396 25.446,298.396 26.500 M230.794 25.118 C 231.001 25.158,231.301 25.156,231.460 25.115 C 231.620 25.073,231.450 25.040,231.083 25.042 C 230.717 25.044,230.586 25.078,230.794 25.118 M271.726 26.583 C 271.725 27.408,271.754 27.767,271.788 27.380 C 271.823 26.993,271.824 26.318,271.789 25.880 C 271.755 25.442,271.726 25.758,271.726 26.583 M158.375 27.750 C 158.377 28.117,158.411 28.247,158.451 28.040 C 158.491 27.832,158.490 27.532,158.448 27.373 C 158.406 27.214,158.374 27.383,158.375 27.750 M361.712 31.167 C 361.712 31.579,361.745 31.748,361.784 31.542 C 361.824 31.335,361.824 30.998,361.784 30.792 C 361.745 30.585,361.712 30.754,361.712 31.167 M315.056 33.833 C 315.056 34.521,315.085 34.802,315.121 34.458 C 315.157 34.115,315.157 33.552,315.121 33.208 C 315.085 32.865,315.056 33.146,315.056 33.833 M155.080 48.083 C 155.080 56.242,155.100 59.555,155.125 55.446 C 155.150 51.337,155.150 44.662,155.125 40.612 C 155.100 36.563,155.080 39.925,155.080 48.083 M295.064 36.250 C 295.064 37.350,295.091 37.778,295.124 37.202 C 295.156 36.625,295.156 35.725,295.123 35.202 C 295.090 34.678,295.063 35.150,295.064 36.250 M275.045 35.667 C 275.045 36.079,275.078 36.248,275.118 36.042 C 275.157 35.835,275.157 35.498,275.118 35.292 C 275.078 35.085,275.045 35.254,275.045 35.667 M385.045 35.667 C 385.045 36.079,385.078 36.248,385.118 36.042 C 385.157 35.835,385.157 35.498,385.118 35.292 C 385.078 35.085,385.045 35.254,385.045 35.667 M255.062 43.417 C 255.063 44.425,255.090 44.816,255.123 44.286 C 255.157 43.755,255.156 42.930,255.123 42.452 C 255.089 41.974,255.062 42.408,255.062 43.417 M278.393 43.167 C 278.393 44.038,278.422 44.394,278.456 43.958 C 278.490 43.523,278.490 42.810,278.456 42.375 C 278.422 41.940,278.393 42.296,278.393 43.167 M9.131 51.790 C 9.615 51.824,10.365 51.823,10.797 51.789 C 11.230 51.755,10.833 51.727,9.917 51.728 C 9.000 51.728,8.646 51.756,9.131 51.790 M20.121 51.787 C 20.417 51.824,20.942 51.824,21.288 51.788 C 21.634 51.752,21.392 51.722,20.750 51.721 C 20.108 51.721,19.825 51.750,20.121 51.787 M315.042 52.250 C 315.044 52.617,315.078 52.747,315.118 52.540 C 315.158 52.332,315.156 52.032,315.115 51.873 C 315.073 51.714,315.040 51.883,315.042 52.250 M0.461 55.121 C 0.761 55.158,1.211 55.157,1.461 55.119 C 1.712 55.081,1.467 55.051,0.917 55.052 C 0.367 55.053,0.162 55.084,0.461 55.121 M285.056 59.500 C 285.056 60.188,285.085 60.469,285.121 60.125 C 285.157 59.781,285.157 59.219,285.121 58.875 C 285.085 58.531,285.056 58.813,285.056 59.500 M181.725 61.833 C 181.725 62.612,181.754 62.931,181.789 62.542 C 181.824 62.152,181.824 61.515,181.789 61.125 C 181.754 60.735,181.725 61.054,181.725 61.833 M208.381 62.583 C 208.382 63.042,208.415 63.209,208.453 62.956 C 208.491 62.703,208.490 62.328,208.451 62.123 C 208.411 61.918,208.380 62.125,208.381 62.583 M95.039 78.833 C 95.039 79.154,95.073 79.285,95.115 79.125 C 95.157 78.965,95.157 78.702,95.115 78.542 C 95.073 78.381,95.039 78.512,95.039 78.833 " stroke="none" fill="#302ca4" fill-rule="evenodd"></path></g></svg>